<?xml version="1.0"?>
<!-- Created with xTool Creative Space (https://www.xtool.com/pages/software) -->
<svg xmlns="http://www.w3.org/2000/svg" xmlns:xlink="http://www.w3.org/1999/xlink" xmlns:xcs="https://www.xtool.com/pages/software" version="1.1" preserveAspectRatio="xMinYMin meet" width="100.00000000000003mm" height="99.99999999999999mm" viewBox="111.40658076858816 119.87603509463723 100.00000000000003 99.99999999999999" xcs:version="2.1.12"><style>svg * { vector-effect: non-scaling-stroke; stroke-width: 1px; }</style>
<rect transform="matrix(1,0,0,1,111.406581,119.876035)" stroke="#00befe" fill="none" x="0" y="0" width="100.00000000000003" height="99.99999999999999"></rect><g transform="matrix(0.333333,0,0,0.333333,116.001104,133.235003)" stroke="#00befe" fill="none"><path transform="matrix(1,0,0,1,-2.84217e-14,0)" stroke="#00befe" fill="none" d="M11.27 -8.53L17.09 -8.53L17.09 -1.19Q13.89 0.2 10.74 0.2Q6.44 0.2 3.86 -2.31Q1.29 -4.82 1.29 -8.51Q1.29 -12.39 3.96 -14.97Q6.62 -17.55 10.64 -17.55Q12.1 -17.55 13.42 -17.23Q14.73 -16.92 16.74 -16.07L16.74 -13.54Q13.64 -15.34 10.59 -15.34Q7.75 -15.34 5.8 -13.41Q3.86 -11.47 3.86 -8.66Q3.86 -5.71 5.8 -3.83Q7.75 -1.96 10.81 -1.96Q12.3 -1.96 14.37 -2.64L14.61 -2.72L14.61 -6.33L11.27 -6.33Z" fill-rule="nonzero"></path>
<path transform="matrix(1,0,0,1,18.801953,0)" stroke="#00befe" fill="none" d="M1.93 -17.33L4.42 -17.33L4.42 0L1.93 0Z" fill-rule="nonzero"></path>
<path transform="matrix(1,0,0,1,25.151953,0)" stroke="#00befe" fill="none" d="M1.91 -17.33L4.39 -17.33L4.39 -2.26L12.19 -2.26L12.19 0L1.91 0Z" fill-rule="nonzero"></path>
<path transform="matrix(1,0,0,1,37.603906,0)" stroke="#00befe" fill="none" fill-rule="nonzero"></path>
<path transform="matrix(1,0,0,1,44.66084,0)" stroke="#00befe" fill="none" d="M6.2 -7.27L4.32 -8.41Q2.54 -9.49 1.79 -10.54Q1.04 -11.58 1.04 -12.95Q1.04 -14.99 2.46 -16.27Q3.88 -17.55 6.15 -17.55Q8.32 -17.55 10.13 -16.33L10.13 -13.52Q8.26 -15.32 6.1 -15.32Q4.89 -15.32 4.11 -14.75Q3.32 -14.19 3.32 -13.31Q3.32 -12.53 3.89 -11.84Q4.46 -11.16 5.74 -10.42L7.64 -9.3Q10.81 -7.42 10.81 -4.49Q10.81 -2.41 9.42 -1.1Q8.02 0.2 5.79 0.2Q3.22 0.2 1.12 -1.38L1.12 -4.53Q3.13 -1.98 5.77 -1.98Q6.93 -1.98 7.71 -2.64Q8.48 -3.29 8.48 -4.27Q8.48 -5.85 6.2 -7.27Z" fill-rule="nonzero"></path>
<path transform="matrix(1,0,0,1,56.294238,0)" stroke="#00befe" fill="none" d="M7.44 -17.43L9.19 -17.43L16.94 0L14.4 0L12.09 -5.13L4.73 -5.13L2.54 0L0 0ZM11.08 -7.34L8.28 -13.62L5.69 -7.34Z" fill-rule="nonzero"></path>
<path transform="matrix(1,0,0,1,73.23584,0)" stroke="#00befe" fill="none" d="M15.68 -17.33L18.03 -17.33L18.03 0L15.9 0L4.32 -13.33L4.32 0L1.98 0L1.98 -17.33L3.99 -17.33L15.68 -3.88Z" fill-rule="nonzero"></path>
<path transform="matrix(1,0,0,1,93.067187,0)" stroke="#00befe" fill="none" d="M6.2 -7.27L4.32 -8.41Q2.54 -9.49 1.79 -10.54Q1.04 -11.58 1.04 -12.95Q1.04 -14.99 2.46 -16.27Q3.88 -17.55 6.15 -17.55Q8.32 -17.55 10.13 -16.33L10.13 -13.52Q8.26 -15.32 6.1 -15.32Q4.89 -15.32 4.11 -14.75Q3.32 -14.19 3.32 -13.31Q3.32 -12.53 3.89 -11.84Q4.46 -11.16 5.74 -10.42L7.64 -9.3Q10.81 -7.42 10.81 -4.49Q10.81 -2.41 9.42 -1.1Q8.02 0.2 5.79 0.2Q3.22 0.2 1.12 -1.38L1.12 -4.53Q3.13 -1.98 5.77 -1.98Q6.93 -1.98 7.71 -2.64Q8.48 -3.29 8.48 -4.27Q8.48 -5.85 6.2 -7.27Z" fill-rule="nonzero"></path>
<path transform="matrix(1,0,0,1,104.700586,0)" stroke="#00befe" fill="none" fill-rule="nonzero"></path>
<path transform="matrix(1,0,0,1,111.75752,0)" stroke="#00befe" fill="none" d="M5.23 -2.39L11.83 -2.39L11.83 0L0.87 0L0.87 -0.17L1.91 -1.4Q4.35 -4.43 5.8 -6.54Q7.24 -8.64 7.68 -9.72Q8.12 -10.8 8.12 -11.86Q8.12 -13.32 7.29 -14.21Q6.46 -15.09 5.08 -15.09Q4.04 -15.09 3.03 -14.48Q2.02 -13.87 1.22 -12.75L1.22 -15.9Q3.24 -17.55 5.38 -17.55Q7.65 -17.55 9.12 -16.04Q10.59 -14.52 10.59 -12.19Q10.59 -11.15 10.23 -9.97Q9.86 -8.78 8.93 -7.24Q8 -5.69 5.77 -3.03Z" fill-rule="nonzero"></path>
<path transform="matrix(1,0,0,1,124.45752,0)" stroke="#00befe" fill="none" d="M9.02 -17.55L10.03 -17.55L10.03 -7.83L11.97 -7.83L11.97 -5.72L10.03 -5.72L10.03 0L7.62 0L7.62 -5.72L0.29 -5.72L0.29 -6.78ZM7.62 -7.83L7.62 -12.85L3.61 -7.83Z" fill-rule="nonzero"></path></g><g transform="matrix(0.277778,0,0,0.277778,116.072771,146.097016)" stroke="#00befe" fill="none"><path transform="matrix(1,0,0,1,0,-5.68434e-14)" stroke="#00befe" fill="none" d="M11.27 -8.53L17.09 -8.53L17.09 -1.19Q13.89 0.2 10.74 0.2Q6.44 0.2 3.86 -2.31Q1.29 -4.82 1.29 -8.51Q1.29 -12.39 3.96 -14.97Q6.62 -17.55 10.64 -17.55Q12.1 -17.55 13.42 -17.23Q14.73 -16.92 16.74 -16.07L16.74 -13.54Q13.64 -15.34 10.59 -15.34Q7.75 -15.34 5.8 -13.41Q3.86 -11.47 3.86 -8.66Q3.86 -5.71 5.8 -3.83Q7.75 -1.96 10.81 -1.96Q12.3 -1.96 14.37 -2.64L14.61 -2.72L14.61 -6.33L11.27 -6.33Z" fill-rule="nonzero"></path>
<path transform="matrix(1,0,0,1,18.801953,-5.68434e-14)" stroke="#00befe" fill="none" d="M1.93 -17.33L4.42 -17.33L4.42 0L1.93 0Z" fill-rule="nonzero"></path>
<path transform="matrix(1,0,0,1,25.151953,-5.68434e-14)" stroke="#00befe" fill="none" d="M1.91 -17.33L4.39 -17.33L4.39 -2.26L12.19 -2.26L12.19 0L1.91 0Z" fill-rule="nonzero"></path>
<path transform="matrix(1,0,0,1,37.603906,-5.68434e-14)" stroke="#00befe" fill="none" fill-rule="nonzero"></path>
<path transform="matrix(1,0,0,1,44.66084,-5.68434e-14)" stroke="#00befe" fill="none" d="M6.2 -7.27L4.32 -8.41Q2.54 -9.49 1.79 -10.54Q1.04 -11.58 1.04 -12.95Q1.04 -14.99 2.46 -16.27Q3.88 -17.55 6.15 -17.55Q8.32 -17.55 10.13 -16.33L10.13 -13.52Q8.26 -15.32 6.1 -15.32Q4.89 -15.32 4.11 -14.75Q3.32 -14.19 3.32 -13.31Q3.32 -12.53 3.89 -11.84Q4.46 -11.16 5.74 -10.42L7.64 -9.3Q10.81 -7.42 10.81 -4.49Q10.81 -2.41 9.42 -1.1Q8.02 0.2 5.79 0.2Q3.22 0.2 1.12 -1.38L1.12 -4.53Q3.13 -1.98 5.77 -1.98Q6.93 -1.98 7.71 -2.64Q8.48 -3.29 8.48 -4.27Q8.48 -5.85 6.2 -7.27Z" fill-rule="nonzero"></path>
<path transform="matrix(1,0,0,1,56.294238,-5.68434e-14)" stroke="#00befe" fill="none" d="M7.44 -17.43L9.19 -17.43L16.94 0L14.4 0L12.09 -5.13L4.73 -5.13L2.54 0L0 0ZM11.08 -7.34L8.28 -13.62L5.69 -7.34Z" fill-rule="nonzero"></path>
<path transform="matrix(1,0,0,1,73.23584,-5.68434e-14)" stroke="#00befe" fill="none" d="M15.68 -17.33L18.03 -17.33L18.03 0L15.9 0L4.32 -13.33L4.32 0L1.98 0L1.98 -17.33L3.99 -17.33L15.68 -3.88Z" fill-rule="nonzero"></path>
<path transform="matrix(1,0,0,1,93.067188,-5.68434e-14)" stroke="#00befe" fill="none" d="M6.2 -7.27L4.32 -8.41Q2.54 -9.49 1.79 -10.54Q1.04 -11.58 1.04 -12.95Q1.04 -14.99 2.46 -16.27Q3.88 -17.55 6.15 -17.55Q8.32 -17.55 10.13 -16.33L10.13 -13.52Q8.26 -15.32 6.1 -15.32Q4.89 -15.32 4.11 -14.75Q3.32 -14.19 3.32 -13.31Q3.32 -12.53 3.89 -11.84Q4.46 -11.16 5.74 -10.42L7.64 -9.3Q10.81 -7.42 10.81 -4.49Q10.81 -2.41 9.42 -1.1Q8.02 0.2 5.79 0.2Q3.22 0.2 1.12 -1.38L1.12 -4.53Q3.13 -1.98 5.77 -1.98Q6.93 -1.98 7.71 -2.64Q8.48 -3.29 8.48 -4.27Q8.48 -5.85 6.2 -7.27Z" fill-rule="nonzero"></path>
<path transform="matrix(1,0,0,1,104.700586,-5.68434e-14)" stroke="#00befe" fill="none" fill-rule="nonzero"></path>
<path transform="matrix(1,0,0,1,111.75752,-5.68434e-14)" stroke="#00befe" fill="none" d="M5.23 -2.39L11.83 -2.39L11.83 0L0.87 0L0.87 -0.17L1.91 -1.4Q4.35 -4.43 5.8 -6.54Q7.24 -8.64 7.68 -9.72Q8.12 -10.8 8.12 -11.86Q8.12 -13.32 7.29 -14.21Q6.46 -15.09 5.08 -15.09Q4.04 -15.09 3.03 -14.48Q2.02 -13.87 1.22 -12.75L1.22 -15.9Q3.24 -17.55 5.38 -17.55Q7.65 -17.55 9.12 -16.04Q10.59 -14.52 10.59 -12.19Q10.59 -11.15 10.23 -9.97Q9.86 -8.78 8.93 -7.24Q8 -5.69 5.77 -3.03Z" fill-rule="nonzero"></path>
<path transform="matrix(1,0,0,1,124.45752,-5.68434e-14)" stroke="#00befe" fill="none" d="M6.45 -17.55Q8.83 -17.55 10.39 -15.05Q11.94 -12.55 11.94 -8.71Q11.94 -4.76 10.39 -2.29Q8.83 0.17 6.35 0.17Q3.83 0.17 2.31 -2.24Q0.78 -4.66 0.78 -8.66Q0.78 -12.6 2.36 -15.08Q3.93 -17.55 6.45 -17.55ZM6.47 -15.19L6.35 -15.19Q4.92 -15.19 4.09 -13.44Q3.25 -11.68 3.25 -8.68Q3.25 -5.61 4.07 -3.86Q4.89 -2.11 6.33 -2.11Q7.76 -2.11 8.59 -3.86Q9.43 -5.61 9.43 -8.61Q9.43 -11.62 8.63 -13.41Q7.83 -15.19 6.47 -15.19Z" fill-rule="nonzero"></path></g><g transform="matrix(0.222222,0,0,0.222222,116.081417,156.45599)" stroke="#00befe" fill="none"><path transform="matrix(1,0,0,1,-2.84217e-14,0)" stroke="#00befe" fill="none" d="M11.27 -8.53L17.09 -8.53L17.09 -1.19Q13.89 0.2 10.74 0.2Q6.44 0.2 3.86 -2.31Q1.29 -4.82 1.29 -8.51Q1.29 -12.39 3.96 -14.97Q6.62 -17.55 10.64 -17.55Q12.1 -17.55 13.42 -17.23Q14.73 -16.92 16.74 -16.07L16.74 -13.54Q13.64 -15.34 10.59 -15.34Q7.75 -15.34 5.8 -13.41Q3.86 -11.47 3.86 -8.66Q3.86 -5.71 5.8 -3.83Q7.75 -1.96 10.81 -1.96Q12.3 -1.96 14.37 -2.64L14.61 -2.72L14.61 -6.33L11.27 -6.33Z" fill-rule="nonzero"></path>
<path transform="matrix(1,0,0,1,18.801953,0)" stroke="#00befe" fill="none" d="M1.93 -17.33L4.42 -17.33L4.42 0L1.93 0Z" fill-rule="nonzero"></path>
<path transform="matrix(1,0,0,1,25.151953,0)" stroke="#00befe" fill="none" d="M1.91 -17.33L4.39 -17.33L4.39 -2.26L12.19 -2.26L12.19 0L1.91 0Z" fill-rule="nonzero"></path>
<path transform="matrix(1,0,0,1,37.603906,0)" stroke="#00befe" fill="none" fill-rule="nonzero"></path>
<path transform="matrix(1,0,0,1,44.66084,0)" stroke="#00befe" fill="none" d="M6.2 -7.27L4.32 -8.41Q2.54 -9.49 1.79 -10.54Q1.04 -11.58 1.04 -12.95Q1.04 -14.99 2.46 -16.27Q3.88 -17.55 6.15 -17.55Q8.32 -17.55 10.13 -16.33L10.13 -13.52Q8.26 -15.32 6.1 -15.32Q4.89 -15.32 4.11 -14.75Q3.32 -14.19 3.32 -13.31Q3.32 -12.53 3.89 -11.84Q4.46 -11.16 5.74 -10.42L7.64 -9.3Q10.81 -7.42 10.81 -4.49Q10.81 -2.41 9.42 -1.1Q8.02 0.2 5.79 0.2Q3.22 0.2 1.12 -1.38L1.12 -4.53Q3.13 -1.98 5.77 -1.98Q6.93 -1.98 7.71 -2.64Q8.48 -3.29 8.48 -4.27Q8.48 -5.85 6.2 -7.27Z" fill-rule="nonzero"></path>
<path transform="matrix(1,0,0,1,56.294238,0)" stroke="#00befe" fill="none" d="M7.44 -17.43L9.19 -17.43L16.94 0L14.4 0L12.09 -5.13L4.73 -5.13L2.54 0L0 0ZM11.08 -7.34L8.28 -13.62L5.69 -7.34Z" fill-rule="nonzero"></path>
<path transform="matrix(1,0,0,1,73.23584,0)" stroke="#00befe" fill="none" d="M15.68 -17.33L18.03 -17.33L18.03 0L15.9 0L4.32 -13.33L4.32 0L1.98 0L1.98 -17.33L3.99 -17.33L15.68 -3.88Z" fill-rule="nonzero"></path>
<path transform="matrix(1,0,0,1,93.067187,0)" stroke="#00befe" fill="none" d="M6.2 -7.27L4.32 -8.41Q2.54 -9.49 1.79 -10.54Q1.04 -11.58 1.04 -12.95Q1.04 -14.99 2.46 -16.27Q3.88 -17.55 6.15 -17.55Q8.32 -17.55 10.13 -16.33L10.13 -13.52Q8.26 -15.32 6.1 -15.32Q4.89 -15.32 4.11 -14.75Q3.32 -14.19 3.32 -13.31Q3.32 -12.53 3.89 -11.84Q4.46 -11.16 5.74 -10.42L7.64 -9.3Q10.81 -7.42 10.81 -4.49Q10.81 -2.41 9.42 -1.1Q8.02 0.2 5.79 0.2Q3.22 0.2 1.12 -1.38L1.12 -4.53Q3.13 -1.98 5.77 -1.98Q6.93 -1.98 7.71 -2.64Q8.48 -3.29 8.48 -4.27Q8.48 -5.85 6.2 -7.27Z" fill-rule="nonzero"></path>
<path transform="matrix(1,0,0,1,104.700586,0)" stroke="#00befe" fill="none" fill-rule="nonzero"></path>
<path transform="matrix(1,0,0,1,111.75752,0)" stroke="#00befe" fill="none" d="M5.13 -17.33L7.62 -17.33L7.62 0L5.13 0Z" fill-rule="nonzero"></path>
<path transform="matrix(1,0,0,1,124.45752,0)" stroke="#00befe" fill="none" d="M7.8 -17.38L8.05 -17.55L9.55 -15.65Q7.57 -14.37 6.26 -12.86Q4.95 -11.35 4.24 -9.3Q5.62 -10.01 6.98 -10.01Q9.03 -10.01 10.43 -8.56Q11.83 -7.11 11.83 -5Q11.83 -2.83 10.31 -1.31Q8.78 0.2 6.6 0.2Q4.15 0.2 2.65 -1.52Q1.14 -3.24 1.14 -6.02Q1.14 -8.1 1.92 -10.16Q2.69 -12.23 4.15 -14.03Q5.61 -15.84 7.8 -17.38ZM3.71 -6.73Q3.61 -6.15 3.61 -5.43Q3.61 -3.97 4.46 -3.03Q5.31 -2.08 6.64 -2.08Q7.83 -2.08 8.6 -2.89Q9.38 -3.7 9.38 -4.92Q9.38 -6.18 8.55 -6.95Q7.73 -7.73 6.37 -7.73Q5.68 -7.73 5.12 -7.52Q4.55 -7.3 3.71 -6.73Z" fill-rule="nonzero"></path></g><g transform="matrix(0.194444,0,0,0.194444,116.169723,164.033068)" stroke="#00befe" fill="none"><path transform="matrix(1,0,0,1,0,0)" stroke="#00befe" fill="none" d="M11.27 -8.53L17.09 -8.53L17.09 -1.19Q13.89 0.2 10.74 0.2Q6.44 0.2 3.86 -2.31Q1.29 -4.82 1.29 -8.51Q1.29 -12.39 3.96 -14.97Q6.62 -17.55 10.64 -17.55Q12.1 -17.55 13.42 -17.23Q14.73 -16.92 16.74 -16.07L16.74 -13.54Q13.64 -15.34 10.59 -15.34Q7.75 -15.34 5.8 -13.41Q3.86 -11.47 3.86 -8.66Q3.86 -5.71 5.8 -3.83Q7.75 -1.96 10.81 -1.96Q12.3 -1.96 14.37 -2.64L14.61 -2.72L14.61 -6.33L11.27 -6.33Z" fill-rule="nonzero"></path>
<path transform="matrix(1,0,0,1,18.801953,0)" stroke="#00befe" fill="none" d="M1.93 -17.33L4.42 -17.33L4.42 0L1.93 0Z" fill-rule="nonzero"></path>
<path transform="matrix(1,0,0,1,25.151953,0)" stroke="#00befe" fill="none" d="M1.91 -17.33L4.39 -17.33L4.39 -2.26L12.19 -2.26L12.19 0L1.91 0Z" fill-rule="nonzero"></path>
<path transform="matrix(1,0,0,1,37.603906,0)" stroke="#00befe" fill="none" fill-rule="nonzero"></path>
<path transform="matrix(1,0,0,1,44.66084,0)" stroke="#00befe" fill="none" d="M6.2 -7.27L4.32 -8.41Q2.54 -9.49 1.79 -10.54Q1.04 -11.58 1.04 -12.95Q1.04 -14.99 2.46 -16.27Q3.88 -17.55 6.15 -17.55Q8.32 -17.55 10.13 -16.33L10.13 -13.52Q8.26 -15.32 6.1 -15.32Q4.89 -15.32 4.11 -14.75Q3.32 -14.19 3.32 -13.31Q3.32 -12.53 3.89 -11.84Q4.46 -11.16 5.74 -10.42L7.64 -9.3Q10.81 -7.42 10.81 -4.49Q10.81 -2.41 9.42 -1.1Q8.02 0.2 5.79 0.2Q3.22 0.2 1.12 -1.38L1.12 -4.53Q3.13 -1.98 5.77 -1.98Q6.93 -1.98 7.71 -2.64Q8.48 -3.29 8.48 -4.27Q8.48 -5.85 6.2 -7.27Z" fill-rule="nonzero"></path>
<path transform="matrix(1,0,0,1,56.294238,0)" stroke="#00befe" fill="none" d="M7.44 -17.43L9.19 -17.43L16.94 0L14.4 0L12.09 -5.13L4.73 -5.13L2.54 0L0 0ZM11.08 -7.34L8.28 -13.62L5.69 -7.34Z" fill-rule="nonzero"></path>
<path transform="matrix(1,0,0,1,73.23584,0)" stroke="#00befe" fill="none" d="M15.68 -17.33L18.03 -17.33L18.03 0L15.9 0L4.32 -13.33L4.32 0L1.98 0L1.98 -17.33L3.99 -17.33L15.68 -3.88Z" fill-rule="nonzero"></path>
<path transform="matrix(1,0,0,1,93.067188,0)" stroke="#00befe" fill="none" d="M6.2 -7.27L4.32 -8.41Q2.54 -9.49 1.79 -10.54Q1.04 -11.58 1.04 -12.95Q1.04 -14.99 2.46 -16.27Q3.88 -17.55 6.15 -17.55Q8.32 -17.55 10.13 -16.33L10.13 -13.52Q8.26 -15.32 6.1 -15.32Q4.89 -15.32 4.11 -14.75Q3.32 -14.19 3.32 -13.31Q3.32 -12.53 3.89 -11.84Q4.46 -11.16 5.74 -10.42L7.64 -9.3Q10.81 -7.42 10.81 -4.49Q10.81 -2.41 9.42 -1.1Q8.02 0.2 5.79 0.2Q3.22 0.2 1.12 -1.38L1.12 -4.53Q3.13 -1.98 5.77 -1.98Q6.93 -1.98 7.71 -2.64Q8.48 -3.29 8.48 -4.27Q8.48 -5.85 6.2 -7.27Z" fill-rule="nonzero"></path>
<path transform="matrix(1,0,0,1,104.700586,0)" stroke="#00befe" fill="none" fill-rule="nonzero"></path>
<path transform="matrix(1,0,0,1,111.75752,0)" stroke="#00befe" fill="none" d="M5.13 -17.33L7.62 -17.33L7.62 0L5.13 0Z" fill-rule="nonzero"></path>
<path transform="matrix(1,0,0,1,124.45752,0)" stroke="#00befe" fill="none" d="M9.02 -17.55L10.03 -17.55L10.03 -7.83L11.97 -7.83L11.97 -5.72L10.03 -5.72L10.03 0L7.62 0L7.62 -5.72L0.29 -5.72L0.29 -6.78ZM7.62 -7.83L7.62 -12.85L3.61 -7.83Z" fill-rule="nonzero"></path></g><g transform="matrix(0.166667,0,0,0.166667,116.090976,172.745839)" stroke="#00befe" fill="none"><path transform="matrix(1,0,0,1,0,-1.13687e-13)" stroke="#00befe" fill="none" d="M11.27 -8.53L17.09 -8.53L17.09 -1.19Q13.89 0.2 10.74 0.2Q6.44 0.2 3.86 -2.31Q1.29 -4.82 1.29 -8.51Q1.29 -12.39 3.96 -14.97Q6.62 -17.55 10.64 -17.55Q12.1 -17.55 13.42 -17.23Q14.73 -16.92 16.74 -16.07L16.74 -13.54Q13.64 -15.34 10.59 -15.34Q7.75 -15.34 5.8 -13.41Q3.86 -11.47 3.86 -8.66Q3.86 -5.71 5.8 -3.83Q7.75 -1.96 10.81 -1.96Q12.3 -1.96 14.37 -2.64L14.61 -2.72L14.61 -6.33L11.27 -6.33Z" fill-rule="nonzero"></path>
<path transform="matrix(1,0,0,1,18.801953,-1.13687e-13)" stroke="#00befe" fill="none" d="M1.93 -17.33L4.42 -17.33L4.42 0L1.93 0Z" fill-rule="nonzero"></path>
<path transform="matrix(1,0,0,1,25.151953,-1.13687e-13)" stroke="#00befe" fill="none" d="M1.91 -17.33L4.39 -17.33L4.39 -2.26L12.19 -2.26L12.19 0L1.91 0Z" fill-rule="nonzero"></path>
<path transform="matrix(1,0,0,1,37.603906,-1.13687e-13)" stroke="#00befe" fill="none" fill-rule="nonzero"></path>
<path transform="matrix(1,0,0,1,44.66084,-1.13687e-13)" stroke="#00befe" fill="none" d="M6.2 -7.27L4.32 -8.41Q2.54 -9.49 1.79 -10.54Q1.04 -11.58 1.04 -12.95Q1.04 -14.99 2.46 -16.27Q3.88 -17.55 6.15 -17.55Q8.32 -17.55 10.13 -16.33L10.13 -13.52Q8.26 -15.32 6.1 -15.32Q4.89 -15.32 4.11 -14.75Q3.32 -14.19 3.32 -13.31Q3.32 -12.53 3.89 -11.84Q4.46 -11.16 5.74 -10.42L7.64 -9.3Q10.81 -7.42 10.81 -4.49Q10.81 -2.41 9.42 -1.1Q8.02 0.2 5.79 0.2Q3.22 0.2 1.12 -1.38L1.12 -4.53Q3.13 -1.98 5.77 -1.98Q6.93 -1.98 7.71 -2.64Q8.48 -3.29 8.48 -4.27Q8.48 -5.85 6.2 -7.27Z" fill-rule="nonzero"></path>
<path transform="matrix(1,0,0,1,56.294238,-1.13687e-13)" stroke="#00befe" fill="none" d="M7.44 -17.43L9.19 -17.43L16.94 0L14.4 0L12.09 -5.13L4.73 -5.13L2.54 0L0 0ZM11.08 -7.34L8.28 -13.62L5.69 -7.34Z" fill-rule="nonzero"></path>
<path transform="matrix(1,0,0,1,73.23584,-1.13687e-13)" stroke="#00befe" fill="none" d="M15.68 -17.33L18.03 -17.33L18.03 0L15.9 0L4.32 -13.33L4.32 0L1.98 0L1.98 -17.33L3.99 -17.33L15.68 -3.88Z" fill-rule="nonzero"></path>
<path transform="matrix(1,0,0,1,93.067187,-1.13687e-13)" stroke="#00befe" fill="none" d="M6.2 -7.27L4.32 -8.41Q2.54 -9.49 1.79 -10.54Q1.04 -11.58 1.04 -12.95Q1.04 -14.99 2.46 -16.27Q3.88 -17.55 6.15 -17.55Q8.32 -17.55 10.13 -16.33L10.13 -13.52Q8.26 -15.32 6.1 -15.32Q4.89 -15.32 4.11 -14.75Q3.32 -14.19 3.32 -13.31Q3.32 -12.53 3.89 -11.84Q4.46 -11.16 5.74 -10.42L7.64 -9.3Q10.81 -7.42 10.81 -4.49Q10.81 -2.41 9.42 -1.1Q8.02 0.2 5.79 0.2Q3.22 0.2 1.12 -1.38L1.12 -4.53Q3.13 -1.98 5.77 -1.98Q6.93 -1.98 7.71 -2.64Q8.48 -3.29 8.48 -4.27Q8.48 -5.85 6.2 -7.27Z" fill-rule="nonzero"></path>
<path transform="matrix(1,0,0,1,104.700586,-1.13687e-13)" stroke="#00befe" fill="none" fill-rule="nonzero"></path>
<path transform="matrix(1,0,0,1,111.75752,-1.13687e-13)" stroke="#00befe" fill="none" d="M5.13 -17.33L7.62 -17.33L7.62 0L5.13 0Z" fill-rule="nonzero"></path>
<path transform="matrix(1,0,0,1,124.45752,-1.13687e-13)" stroke="#00befe" fill="none" d="M5.23 -2.39L11.83 -2.39L11.83 0L0.87 0L0.87 -0.17L1.91 -1.4Q4.35 -4.43 5.8 -6.54Q7.24 -8.64 7.68 -9.72Q8.12 -10.8 8.12 -11.86Q8.12 -13.32 7.29 -14.21Q6.46 -15.09 5.08 -15.09Q4.04 -15.09 3.03 -14.48Q2.02 -13.87 1.22 -12.75L1.22 -15.9Q3.24 -17.55 5.38 -17.55Q7.65 -17.55 9.12 -16.04Q10.59 -14.52 10.59 -12.19Q10.59 -11.15 10.23 -9.97Q9.86 -8.78 8.93 -7.24Q8 -5.69 5.77 -3.03Z" fill-rule="nonzero"></path></g></svg>