<?xml version="1.0" encoding="UTF-8" standalone="no"?>
<svg xmlns="http://www.w3.org/2000/svg" xmlns:xlink="http://www.w3.org/1999/xlink" width="220.000mm" height="178.000mm" viewBox="21.000000 12.000002 220.000000 178.000000">
    <rect transform="translate(131,37)" style="stroke:#000000;stroke-width:0.050000mm;fill:none" x="-110" y="-24.999998" width="220" height="49.999996"/>
    <circle transform="matrix(1,0,0,-1,79,37.499992)" style="stroke:#000000;stroke-width:0.050000mm;fill:none" r="5.999996" cx="0" cy="0"/>
    <circle transform="matrix(1,0,0,-1,184,37.499992)" style="stroke:#000000;stroke-width:0.050000mm;fill:none" r="5.999996" cx="0" cy="0"/>
    <rect transform="translate(131,99)" style="stroke:#000000;stroke-width:0.050000mm;fill:none" x="-110" y="-24.999998" width="220" height="49.999996"/>
    <circle transform="matrix(1,0,0,-1,79,99.499992)" style="stroke:#000000;stroke-width:0.050000mm;fill:none" r="8.999996" cx="0" cy="0"/>
    <circle transform="matrix(1,0,0,-1,184,99.499992)" style="stroke:#000000;stroke-width:0.050000mm;fill:none" r="8.999993" cx="0" cy="0"/>
    <ellipse transform="matrix(1,0,0,-1,79,165.499985)" style="stroke:#000000;stroke-width:0.050000mm;fill:none" rx="5.000002" ry="6.000007" cx="0" cy="0"/>
    <ellipse transform="matrix(1,0,0,-1,184,165.499985)" style="stroke:#000000;stroke-width:0.050000mm;fill:none" rx="4.999997" ry="6" cx="0" cy="0"/>
    <path style="stroke:#000000;stroke-width:0.050000mm;fill:none" d="M21,180C26.522846,180,31,184.477158,31,190L228.929169,190C228.929001,189.976334,228.928925,189.952637,228.928925,189.928925C228.928925,184.406082,233.406082,179.928925,238.928925,179.928925C239.638992,179.928925,240.331787,180.00293,241,180.143661L241,150.856339C240.331787,150.99707,239.639008,151.071075,238.928925,151.071075C233.406082,151.071075,228.928925,146.593918,228.928925,141.071075C228.928925,140.709244,228.948135,140.351898,228.985611,140L30.907867,139.999985C30.968616,140.445694,31,140.900757,31,141.363144C31,146.885986,26.522846,151.363144,21,151.363144L21,180z"/>
    <path transform="translate(79.209442,151.997406)" style="stroke:#000000;stroke-width:0.050000mm;fill:none" d="M-3.680176,2.176758C-3.697651,2.548541,-3.650735,2.920563,-3.541504,3.276367C-3.353612,3.702535,-2.939066,3.983827,-2.473633,4.000977C-2.056467,4.059667,-1.631059,3.989447,-1.254883,3.799805C-1.000076,3.639998,-0.827006,3.377275,-0.780762,3.080078C-0.7156,2.783535,-0.685769,2.480317,-0.691895,2.176758L-0.691895,-1.12793L0.065918,-1.12793L0.065918,2.180664C0.082707,2.645664,0.01657,3.109944,-0.129395,3.551758C-0.357295,4.09966,-0.842277,4.498659,-1.423828,4.616699C-2.016959,4.749468,-2.634643,4.723191,-3.214355,4.540527C-3.768919,4.359185,-4.187253,3.898906,-4.314941,3.32959C-4.402518,2.953024,-4.443835,2.567234,-4.437988,2.180664L-4.437988,-1.12793L-3.680176,-1.12793L-3.680176,2.176758zM3.754883,-1.124512C4.213432,-1.150897,4.669806,-1.039822,5.064941,-0.805664C5.571416,-0.405306,5.80559,0.248524,5.668457,0.879395C5.575729,1.562112,5.040824,2.101405,4.358887,2.199707C4.093224,2.249123,3.823433,2.272832,3.553223,2.270508L2.084473,2.270508L2.084473,4.598633L1.32666,4.598633L1.32666,-1.12793C2.136302,-1.1371,2.945277,-1.135956,3.754883,-1.124512zM2.084473,-0.452148L2.084473,1.594727C2.636863,1.606991,3.189384,1.605526,3.741699,1.590332C4.052437,1.60115,4.357981,1.506249,4.60791,1.321289C4.970494,0.946373,5.023232,0.371117,4.734863,-0.063477C4.562152,-0.305205,4.280903,-0.446012,3.983887,-0.439453C3.351077,-0.462875,2.717579,-0.46711,2.084473,-0.452148z"/>
    <path transform="translate(78.375488,174.976563)" style="stroke:#000000;stroke-width:0.050000mm;fill:none" d="M-2.734375,-1.205566C-2.488483,-1.175753,-2.247913,-1.111996,-2.019531,-1.016113C-1.330597,-0.729478,-0.802223,-0.154498,-0.574707,0.556152C-0.269439,1.457745,-0.328125,2.442789,-0.738281,3.301758C-1.137083,4.070764,-1.896475,4.586754,-2.758301,4.674316C-3.512183,4.78097,-4.276681,4.570397,-4.869629,4.092773C-5.517541,3.512461,-5.880175,2.679206,-5.863281,1.80957C-5.885047,1.1847,-5.736156,0.565669,-5.432617,0.019043C-4.946214,-0.786014,-4.06104,-1.264126,-3.121094,-1.229492L-2.734375,-1.205566zM-9.12207,-1.122559L-8.847656,-1.107422C-7.95862,-1.081031,-7.179795,-0.501303,-6.899414,0.342773C-6.560711,1.313575,-6.596921,2.375331,-7.000977,3.320801C-7.326541,4.058839,-8.046854,4.546328,-8.853027,4.574219C-9.015709,4.591303,-9.179198,4.599453,-9.342773,4.598633L-11.40918,4.598633L-11.40918,-1.12793C-10.64676,-1.13916,-9.884363,-1.137375,-9.12207,-1.122559zM1.71875,2.625977C1.811438,3.014052,1.892195,3.40482,1.960938,3.797852L2.099609,3.21875L2.206055,2.786621L3.308594,-1.12793L4.222656,-1.12793C4.557648,0.011826,4.878754,1.154373,5.186523,2.301758C5.313664,2.794738,5.414392,3.294133,5.488281,3.797852L5.546875,3.516602C5.592278,3.308445,5.639812,3.100728,5.689453,2.893555L6.671875,-1.12793L7.433594,-1.12793L5.863281,4.598633L5.132813,4.598633C4.663422,2.953156,4.20871,1.305695,3.767578,-0.347656L3.746094,-0.436523L3.65918,-0.071289L3.578125,0.235352L2.363281,4.598633L1.589844,4.598633L0.070313,-1.12793L0.847656,-1.12793L1.71875,2.625977zM11.916992,3.368164L11.916992,-1.12793L12.643555,-1.12793L12.643555,4.598633L11.866211,4.598633L8.858398,0.098633L8.858398,4.598633L8.131836,4.598633L8.131836,-1.12793L8.90918,-1.12793L11.916992,3.368164zM-3.314941,-0.568359C-4.159983,-0.507476,-4.855019,0.120916,-5.000488,0.955566C-5.134319,1.547671,-5.114482,2.164304,-4.942871,2.746582C-4.638707,3.677462,-3.675698,4.224972,-2.720215,4.010254C-1.966481,3.85337,-1.383222,3.255047,-1.245605,2.497559C-1.066395,1.745198,-1.169754,0.953587,-1.536133,0.272461C-1.919077,-0.32533,-2.609944,-0.651894,-3.314941,-0.568359zM-10.651367,-0.452148L-10.651367,3.922852C-10.154443,3.932501,-9.657475,3.930384,-9.160645,3.916504C-8.794008,3.922976,-8.434157,3.816215,-8.130371,3.61084C-7.819217,3.336862,-7.611077,2.964691,-7.540527,2.556152C-7.39419,1.90121,-7.422309,1.219283,-7.62207,0.578613C-7.769308,0.172425,-8.074136,-0.156867,-8.467773,-0.334961C-8.78576,-0.428486,-9.117171,-0.468097,-9.448242,-0.452148L-10.651367,-0.452148z"/>
    <path transform="translate(183.081055,152.123047)" style="stroke:#000000;stroke-width:0.050000mm;fill:none" d="M-4.04541,-0.452148L-7.150879,-0.452148L-7.150879,1.321289L-4.463379,1.321289L-4.463379,1.99707L-7.150879,1.99707L-7.150879,4.598633L-7.908691,4.598633L-7.908691,-1.12793L-4.04541,-1.12793L-4.04541,-0.452148zM-1.932617,2.625977L-1.801758,3.213867L-1.69043,3.797852L-1.551758,3.21875L-1.445313,2.786621L-0.342773,-1.12793L0.571289,-1.12793C0.906265,0.011829,1.227371,1.154377,1.535156,2.301758C1.662296,2.794737,1.763023,3.294132,1.836914,3.797852L1.895508,3.516602C1.94091,3.308454,1.988445,3.100725,2.038086,2.893555L3.020508,-1.12793L3.782227,-1.12793L2.211914,4.598633L1.481445,4.598633C1.012085,2.953148,0.557373,1.305687,0.116211,-0.347656L0.094727,-0.436523L0.007813,-0.071289L-0.073242,0.235352L-1.288086,4.598633L-2.061523,4.598633L-3.581055,-1.12793L-2.803711,-1.12793L-1.932617,2.625977zM6.775391,-1.122559C7.253576,-1.13835,7.726374,-1.016846,8.137695,-0.772461C8.623456,-0.433825,8.965452,0.073946,9.09668,0.651367C9.329832,1.538532,9.259352,2.478337,8.896484,3.320801C8.57096,4.058878,7.850628,4.546379,7.044434,4.574219C6.881756,4.591302,6.718256,4.599453,6.554688,4.598633L4.488281,4.598633L4.488281,-1.12793C5.2507,-1.13916,6.013099,-1.137375,6.775391,-1.122559zM5.246094,-0.452148L5.246094,3.922852C5.743018,3.932501,6.239987,3.930384,6.736816,3.916504C7.10359,3.922861,7.463562,3.816114,7.767578,3.61084C8.078321,3.336604,8.286238,2.964526,8.356934,2.556152C8.503405,1.901264,8.475452,1.21932,8.275879,0.578613C8.128165,0.172558,7.823258,-0.156629,7.429688,-0.334961C7.111701,-0.428486,6.78029,-0.468097,6.449219,-0.452148L5.246094,-0.452148z"/>
    <path transform="translate(182.265839,180.728516)" style="stroke:#000000;stroke-width:0.050000mm;fill:none" d="M-5.778809,-5.71582C-5.381357,-5.714951,-4.99549,-5.579614,-4.68457,-5.332031C-4.16756,-4.896476,-4.043382,-4.149753,-4.391602,-3.570313C-4.538185,-3.342114,-4.746895,-3.16051,-4.993164,-3.046875L-4.748047,-2.95752C-4.165546,-2.704681,-3.827171,-2.089782,-3.925293,-1.462402C-3.989457,-0.714644,-4.582966,-0.119691,-5.330566,-0.053711C-5.570393,-0.016035,-5.812901,0.001929,-6.055664,0L-8.239258,0L-8.239258,-5.726563L-6.09082,-5.726563L-5.778809,-5.71582zM-1.744141,-1.972656L-1.613281,-1.384766L-1.501953,-0.800781L-1.362793,-1.379883L-1.256348,-1.812012L-0.154297,-5.726563L0.759766,-5.726563C1.094406,-4.587109,1.415665,-3.444187,1.723633,-2.297363C1.850829,-1.804247,1.951564,-1.304653,2.025391,-0.800781L2.084473,-1.08252C2.129416,-1.290869,2.176912,-1.498422,2.227051,-1.705566L3.208984,-5.726563L3.970703,-5.726563L2.400391,0L1.669922,0C1.200562,-1.645477,0.74585,-3.292938,0.304688,-4.946289L0.283203,-5.035156L0.196289,-4.669922L0.115234,-4.363281L-1.099609,0L-1.873047,0L-3.392578,-5.726563L-2.615234,-5.726563L-1.744141,-1.972656zM6.963867,-5.72168C7.442009,-5.737053,7.914686,-5.615581,8.326172,-5.371582C8.812219,-5.033008,9.154277,-4.52497,9.285156,-3.947266C9.518653,-3.060179,9.448339,-2.120301,9.085449,-1.277832C8.759856,-0.539822,8.039556,-0.052342,7.233398,-0.024414C7.070719,-0.00733,6.907225,0.00082,6.743652,0L4.677246,0L4.677246,-5.726563C5.439587,-5.736794,6.201562,-5.735161,6.963867,-5.72168zM-7.481445,-2.644531L-7.481445,-0.675781C-6.902066,-0.659645,-6.3224,-0.661926,-5.743164,-0.682617C-5.445931,-0.678353,-5.158809,-0.789875,-4.942383,-0.993652C-4.611883,-1.378393,-4.616887,-1.947302,-4.954102,-2.326172C-5.151811,-2.50648,-5.406915,-2.61077,-5.674316,-2.620605C-5.834694,-2.63781,-5.995931,-2.645799,-6.157227,-2.644531L-7.481445,-2.644531zM5.435059,-5.050781L5.435059,-0.675781C5.931915,-0.665392,6.429052,-0.667673,6.925781,-0.682617C7.2924,-0.675735,7.652328,-0.782349,7.956055,-0.987793C8.267209,-1.261771,8.475349,-1.633942,8.545898,-2.04248C8.692189,-2.697425,8.664071,-3.379344,8.464355,-4.02002C8.317091,-4.426188,8.012268,-4.755474,7.618652,-4.933594C7.300662,-5.027091,6.969252,-5.066702,6.638184,-5.050781L5.435059,-5.050781zM-7.481445,-5.050781L-7.481445,-3.320313C-6.990622,-3.312576,-6.499537,-3.314041,-6.008789,-3.324707C-5.706281,-3.3017,-5.405929,-3.392641,-5.166992,-3.57959C-4.89637,-3.883736,-4.85903,-4.328844,-5.075195,-4.673828C-5.242198,-4.911613,-5.520411,-5.046655,-5.810547,-5.030762C-6.367008,-5.059715,-6.924437,-5.066395,-7.481445,-5.050781z"/>
    <path transform="translate(132.550034,144.830261)" style="stroke:#000000;stroke-width:0.050000mm;fill:none" d="M-34.177734,-1.515625L-33.814941,-1.467773C-33.278969,-1.394429,-32.782764,-1.143317,-32.40625,-0.754883C-32.074017,-0.377722,-31.885399,0.104453,-31.873535,0.606934L-32.781738,0.675293L-32.840332,0.356445C-32.971821,-0.177514,-33.417652,-0.576416,-33.962891,-0.647949C-34.494148,-0.753837,-35.044403,-0.709363,-35.551758,-0.519531C-35.914364,-0.365514,-36.155273,-0.016229,-36.17041,0.377441C-36.171104,0.755607,-35.92453,1.089789,-35.562988,1.200684C-35.032291,1.393618,-34.486877,1.543526,-33.932129,1.648926L-33.699707,1.708984C-33.112572,1.822121,-32.568066,2.094966,-32.125977,2.497559C-31.557165,3.143965,-31.499487,4.093185,-31.98584,4.803711C-32.287136,5.242462,-32.730732,5.563431,-33.241699,5.712402C-34.1292,5.962358,-35.073078,5.918528,-35.933594,5.587402C-36.792912,5.223223,-37.352749,4.382023,-37.356934,3.44873L-36.463379,3.370605L-36.421387,3.626953C-36.330715,4.165995,-35.959507,4.616508,-35.447754,4.808594C-34.725338,5.110889,-33.909809,5.09744,-33.197754,4.771484C-32.710938,4.549924,-32.463818,4.001112,-32.620605,3.489746C-32.722973,3.216285,-32.933731,2.997405,-33.203125,2.884766C-33.605473,2.716782,-34.0233,2.588735,-34.450684,2.502441L-34.92334,2.38623C-35.411476,2.288614,-35.87962,2.109344,-36.308105,1.855957C-37.038277,1.38757,-37.298176,0.443595,-36.910645,-0.33252C-36.702057,-0.772043,-36.331978,-1.114143,-35.877441,-1.287598C-35.336941,-1.497326,-34.754402,-1.575478,-34.177734,-1.515625zM22.283203,2.721191L22.286133,2.946777C22.27824,3.336552,22.335854,3.724998,22.456543,4.095703C22.641691,4.545363,23.043406,4.869751,23.521973,4.956055C24.125767,5.094005,24.758329,5.021136,25.314941,4.749512C25.633408,4.549796,25.84977,4.221513,25.907715,3.850098C25.988918,3.479466,26.026123,3.10054,26.018555,2.721191L26.018555,-1.409668L26.96582,-1.409668L26.96582,2.726074C26.986839,3.307327,26.904167,3.88768,26.72168,4.439941C26.396345,5.189937,25.699778,5.712267,24.888672,5.814453C24.149757,5.944614,23.389555,5.872237,22.688477,5.60498C22.01675,5.309482,21.545353,4.687108,21.442871,3.960449C21.367075,3.553451,21.331261,3.14004,21.335938,2.726074L21.335938,-1.409668L22.283203,-1.409668L22.283203,2.721191zM-10.319336,-1.523438L-10.066895,-1.497559C-8.945838,-1.35974,-8.025747,-0.543436,-7.755371,0.553223L-8.687988,0.772949L-8.82666,0.408691C-8.985601,0.009105,-9.282089,-0.320634,-9.662598,-0.520996C-10.419241,-0.851634,-11.290768,-0.778227,-11.981445,-0.325684C-12.439817,0.012862,-12.753084,0.512239,-12.858398,1.072266C-13.106451,2.06042,-13.00345,3.103381,-12.566895,4.023926C-12.166801,4.682842,-11.445966,5.077682,-10.675293,5.060059C-9.698283,5.0874,-8.83978,4.413169,-8.634766,3.45752L-8.580566,3.23877L-7.633301,3.478027C-7.792782,4.258877,-8.248174,4.948264,-8.903809,5.401367C-9.493731,5.768042,-10.18805,5.930382,-10.879395,5.863281C-11.592398,5.862151,-12.281627,5.604319,-12.820313,5.137207C-13.267176,4.713312,-13.588366,4.174334,-13.748535,3.57959C-14.047674,2.607168,-14.038121,1.565891,-13.721191,0.599121C-13.383041,-0.419039,-12.536526,-1.186628,-11.490234,-1.423828C-11.107166,-1.515793,-10.712433,-1.549373,-10.319336,-1.523438zM-28.095215,0.456543L-27.853027,0.489746C-26.956505,0.664638,-26.256163,1.36672,-26.083496,2.263672C-26.004885,2.630373,-25.975492,3.005909,-25.996094,3.380371L-29.863281,3.380371L-29.844727,3.587402C-29.818657,4.155143,-29.510321,4.672642,-29.023438,4.96582C-28.463783,5.27238,-27.771402,5.182481,-27.308594,4.743164C-27.139835,4.548512,-27.010811,4.322804,-26.928711,4.078613L-26.020508,4.190918C-26.241383,5.153913,-27.091721,5.842732,-28.07959,5.858887C-28.742123,5.931187,-29.406704,5.740981,-29.930664,5.329102C-30.377941,4.935203,-30.662647,4.389112,-30.729492,3.796875C-30.839373,3.121256,-30.76289,2.428357,-30.508301,1.792969C-30.132063,0.94481,-29.276821,0.411082,-28.349609,0.445801L-28.095215,0.456543zM13.015625,0.456543C14.123171,0.535236,15.016685,1.394432,15.138672,2.498047C15.245049,3.172769,15.18058,3.863454,14.951172,4.506836C14.617831,5.257488,13.90472,5.769629,13.086914,5.845703C12.403708,5.94908,11.708189,5.7625,11.168457,5.331055C10.714245,4.931525,10.427307,4.375607,10.364746,3.773926C10.268339,3.146155,10.322559,2.504544,10.522949,1.901855C10.877584,0.988237,11.775322,0.402448,12.754395,0.445801L13.015625,0.456543zM-22.408691,0.455566L-22.123047,0.484863C-21.711674,0.521185,-21.326485,0.701932,-21.035645,0.995117C-20.798977,1.325145,-20.687351,1.728557,-20.720703,2.133301C-20.715546,2.613957,-20.714737,3.09509,-20.718262,3.575684L-20.714844,4.131836C-20.729948,4.518829,-20.700453,4.90637,-20.626953,5.286621C-20.584255,5.447836,-20.521427,5.603025,-20.439941,5.748535L-21.35791,5.748535C-21.454105,5.547482,-21.513636,5.330862,-21.533691,5.108887L-21.775391,5.30127C-22.551018,5.913285,-23.602837,6.040429,-24.501953,5.630859C-25.123978,5.273715,-25.386927,4.511976,-25.117676,3.847168C-24.906218,3.360568,-24.473911,3.005277,-23.955566,2.89209C-23.45899,2.792711,-22.958334,2.714674,-22.455078,2.658203L-22.25,2.621094C-22.032051,2.581826,-21.817156,2.527164,-21.606934,2.45752C-21.582294,2.226851,-21.601688,1.993459,-21.664063,1.77002C-21.724501,1.581001,-21.860619,1.425612,-22.040039,1.34082C-22.535948,1.130131,-23.092279,1.113933,-23.599609,1.29541C-23.853048,1.414754,-24.043783,1.636391,-24.124023,1.904785L-24.20459,2.159668L-25.063965,2.04248C-25.001947,1.644153,-24.814396,1.275727,-24.528809,0.991211C-24.107288,0.656229,-23.587608,0.468595,-23.049316,0.457031C-22.836033,0.442556,-22.622038,0.442067,-22.408691,0.455566zM-4.214355,0.456543L-3.965332,0.489258C-2.964939,0.670187,-2.202215,1.487546,-2.09082,2.498047C-1.984589,3.172769,-2.049055,3.86343,-2.27832,4.506836C-2.611763,5.25739,-3.324832,5.7695,-4.142578,5.845703C-4.825792,5.949261,-5.521384,5.76266,-6.061035,5.331055C-6.515234,4.931444,-6.8023,4.375612,-6.865234,3.773926C-6.988508,3.053844,-6.894134,2.313136,-6.594238,1.646973C-6.17341,0.876649,-5.352687,0.411339,-4.475586,0.445801L-4.214355,0.456543zM37.246094,0.562988L38.129883,0.562988L38.129883,1.246582L37.246094,1.246582C37.228767,2.314335,37.229744,3.381999,37.249023,4.449707C37.233536,4.594053,37.270649,4.739199,37.353516,4.858398C37.50732,4.99135,37.717037,5.039798,37.913574,4.987793L38.129883,4.962402L38.256836,5.73877C37.843781,5.851882,37.407318,5.849347,36.995605,5.731445C36.635078,5.607577,36.394325,5.265951,36.398926,4.884766C36.378666,4.667116,36.369701,4.448556,36.37207,4.22998L36.37207,1.246582L35.727539,1.246582L35.727539,0.562988L36.37207,0.562988L36.37207,-0.721191L37.246094,-1.248535L37.246094,0.562988zM5.577148,0.562988L6.460938,0.562988L6.460938,1.246582L5.577148,1.246582C5.559814,2.314348,5.560791,3.381993,5.580078,4.449707C5.564685,4.594041,5.601789,4.739166,5.68457,4.858398C5.838379,4.991342,6.048091,5.039793,6.244629,4.987793L6.460938,4.962402L6.587891,5.73877C6.174835,5.851877,5.738374,5.849342,5.32666,5.731445C4.966167,5.607539,4.725426,5.265931,4.72998,4.884766C4.710227,4.66708,4.701264,4.448549,4.703125,4.22998L4.703125,1.246582L4.058594,1.246582L4.058594,0.562988L4.703125,0.562988L4.703125,-0.721191L5.577148,-1.248535L5.577148,0.562988zM-18.321289,0.562988L-17.4375,0.562988L-17.4375,1.246582L-18.321289,1.246582C-18.338615,2.314374,-18.337639,3.381878,-18.318359,4.449707C-18.333748,4.59404,-18.296646,4.739164,-18.213867,4.858398C-18.060061,4.991346,-17.850346,5.0398,-17.653809,4.987793L-17.4375,4.962402L-17.310547,5.73877C-17.723602,5.851877,-18.160065,5.849343,-18.571777,5.731445C-18.932272,5.607543,-19.173016,5.265932,-19.168457,4.884766C-19.18821,4.667083,-19.197174,4.448547,-19.195313,4.22998L-19.195313,1.246582L-19.839844,1.246582L-19.839844,0.562988L-19.195313,0.562988L-19.195313,-0.721191L-18.321289,-1.248535L-18.321289,0.562988zM1.652344,0.456055C2.125261,0.475625,2.568351,0.693536,2.872559,1.056152C3.106934,1.418733,3.218863,1.846939,3.191895,2.277832C3.20488,3.434913,3.205856,4.591531,3.194824,5.748535L2.315918,5.748535L2.315918,2.594238C2.3461,2.275402,2.28954,1.953938,2.152344,1.664551C1.9484,1.362111,1.601111,1.188745,1.236816,1.20752C0.780786,1.188565,0.347298,1.405678,0.089355,1.782227C-0.083964,2.134099,-0.163039,2.524931,-0.140137,2.916504L-0.140137,5.748535L-1.019043,5.748535L-1.019043,0.562988L-0.228027,0.562988L-0.228027,1.300293L-0.077148,1.100098C0.296566,0.664472,0.848836,0.423494,1.422363,0.445801L1.652344,0.456055zM9.447266,0.463379C9.68928,0.506832,9.920455,0.597046,10.12793,0.729004L9.825195,1.544434L9.664063,1.460938C9.299705,1.265024,8.849609,1.330485,8.556152,1.62207C8.359612,1.874157,8.24453,2.179906,8.226074,2.499023C8.200733,2.6761,8.188493,2.854811,8.189453,3.033691L8.189453,5.748535L7.310547,5.748535L7.310547,0.562988L8.101563,0.562988L8.101563,1.349121L8.25,1.09668C8.372812,0.863627,8.561282,0.671592,8.791992,0.544434C8.996054,0.44785,9.225821,0.419429,9.447266,0.463379zM17.070313,5.748535L16.191406,5.748535L16.191406,-1.409668L17.070313,-1.409668L17.070313,5.748535zM31.100586,0.456055C31.573648,0.475572,32.016918,0.693485,32.321289,1.056152C32.555801,1.418654,32.667583,1.846963,32.640137,2.277832C32.655289,3.434501,32.656418,4.591932,32.643555,5.748535L31.764648,5.748535L31.764648,2.594238C31.794462,2.275365,31.737745,1.95396,31.600586,1.664551C31.396919,1.362055,31.049728,1.188645,30.685547,1.20752C30.229427,1.188772,29.795887,1.405817,29.537598,1.782227C29.364323,2.134094,29.285408,2.524971,29.308594,2.916504L29.308594,5.748535L28.429688,5.748535L28.429688,0.562988L29.220703,0.562988L29.220703,1.300293L29.371094,1.100098C29.801624,0.607004,30.4524,0.364662,31.100586,0.456055zM34.874023,5.748535L33.995117,5.748535L33.995117,0.562988L34.874023,0.562988L34.874023,5.748535zM-21.875977,3.239746L-22.205078,3.32666C-22.565063,3.405542,-22.928158,3.469397,-23.293457,3.518066L-23.504883,3.561035C-23.805595,3.587284,-24.07209,3.767104,-24.208984,4.036133C-24.38036,4.410931,-24.228462,4.854399,-23.863281,5.04541C-23.153839,5.349351,-22.329838,5.137844,-21.854492,4.529785C-21.665083,4.209573,-21.578712,3.839228,-21.606934,3.468262L-21.606934,3.145996L-21.875977,3.239746zM-4.636719,1.181152C-5.246482,1.248282,-5.749144,1.689305,-5.89502,2.285156C-6.086689,2.975036,-6.03886,3.708993,-5.759277,4.368164C-5.431131,5.000417,-4.690897,5.299536,-4.015625,5.072754C-3.473225,4.875115,-3.08634,4.390992,-3.013184,3.818359C-2.896671,3.247944,-2.934421,2.656916,-3.122559,2.105957C-3.355855,1.487469,-3.979946,1.106292,-4.636719,1.181152zM12.592773,1.181152L12.438965,1.204102C11.827463,1.348839,11.369015,1.856454,11.287109,2.479492C11.148314,3.112624,11.212383,3.773485,11.470215,4.368164C11.79855,5.000472,12.538953,5.299576,13.214355,5.072754C13.756596,4.874927,14.143421,4.390876,14.216797,3.818359C14.333384,3.247922,14.29546,2.656821,14.106934,2.105957C13.873693,1.487414,13.249571,1.106218,12.592773,1.181152zM-28.630371,1.193848C-29.207548,1.305967,-29.658409,1.757985,-29.769043,2.335449L-29.814453,2.657715L-26.918945,2.657715C-26.928474,2.30464,-27.044186,1.962608,-27.250977,1.67627C-27.583515,1.269078,-28.116537,1.082663,-28.630371,1.193848zM34.874023,-0.398926L33.995117,-0.398926L33.995117,-1.409668L34.874023,-1.409668L34.874023,-0.398926z"/>
    <path style="stroke:#000000;stroke-width:0.050000mm;fill:none" d="M173,147C198.172867,146.603958,198,147,198,147"/>
    <path style="stroke:#000000;stroke-width:0.050000mm;fill:none" d="M90,147C63.720421,147.152756,64,147,64,147"/>
</svg>
